<svg version="1.2" xmlns="http://www.w3.org/2000/svg" viewBox="0 0 1080 1080" width="1080" height="1080">
	<title>Discord</title>
	<path id="Background" fill-rule="evenodd" class="s0" d="m540 1080c-298.6 0-540-241.4-540-540 0-298.6 241.4-540 540-540 298.6 0 540 241.4 540 540 0 298.6-241.4 540-540 540zm258-775.2q-0.1-0.1-0.2-0.3-0.1-0.1-0.2-0.2-0.2-0.1-0.3-0.2-0.1-0.1-0.3-0.2-18-8.3-36.5-15.4-18.5-7-37.5-12.9-18.9-5.9-38.2-10.5-19.3-4.7-38.8-8.1-0.4 0-0.7 0-0.4 0.1-0.7 0.2-0.3 0.2-0.6 0.4-0.3 0.3-0.4 0.6-2.6 4.7-5.1 9.5-2.5 4.7-4.8 9.6-2.4 4.8-4.6 9.7-2.2 4.9-4.3 9.9-21.1-3.2-42.3-4.9-21.2-1.6-42.5-1.6-21.3 0-42.5 1.6-21.3 1.7-42.3 4.9-2.1-5-4.4-9.9-2.2-4.9-4.6-9.7-2.4-4.9-4.9-9.6-2.6-4.8-5.2-9.5-0.2-0.3-0.5-0.6-0.2-0.2-0.6-0.4-0.3-0.1-0.6-0.2-0.4 0-0.7 0-19.6 3.4-38.9 8-19.2 4.7-38.2 10.6-18.9 5.8-37.4 12.9-18.5 7.1-36.5 15.4-0.2 0.1-0.3 0.2-0.2 0.1-0.3 0.2-0.1 0.1-0.2 0.2-0.2 0.1-0.2 0.3c-96.2 143.8-122.6 284.1-109.6 422.7q0 0.2 0.1 0.5 0 0.2 0.2 0.4 0.1 0.2 0.3 0.4 0.1 0.2 0.3 0.4 21 15.5 43.2 29.2 22.2 13.8 45.5 25.5 23.3 11.8 47.4 21.6 24.2 9.7 49.2 17.4 0.3 0.1 0.7 0.1 0.4 0 0.7-0.1 0.4-0.1 0.7-0.3 0.3-0.2 0.5-0.5 5.3-7.3 10.4-14.9 5-7.5 9.8-15.2 4.7-7.7 9.2-15.6 4.4-7.9 8.5-16 0.2-0.5 0.2-1 0-0.5-0.1-1-0.2-0.4-0.6-0.8-0.3-0.3-0.8-0.5-7.5-2.9-14.9-6-7.4-3.2-14.6-6.7-7.2-3.4-14.3-7.2-7.1-3.7-14.1-7.7-0.5-0.3-0.8-0.8-0.3-0.5-0.4-1.1 0-0.6 0.3-1.2 0.2-0.5 0.7-0.9c3.9-2.9 7.8-5.9 11.5-9q0.2-0.2 0.5-0.3 0.3-0.1 0.6-0.2 0.3 0 0.7 0 0.3 0.1 0.6 0.2c121.4 55.5 252.8 55.5 372.8 0q0.3-0.1 0.6-0.2 0.3 0 0.6 0 0.4 0 0.7 0.2 0.3 0.1 0.5 0.3c3.7 3.1 7.6 6.1 11.5 9q0.5 0.4 0.8 0.9 0.2 0.6 0.2 1.2-0.1 0.6-0.4 1.1-0.3 0.5-0.8 0.8-6.9 4-14 7.8-7.1 3.7-14.3 7.2-7.3 3.5-14.7 6.6-7.4 3.1-14.9 6-0.4 0.1-0.8 0.5-0.4 0.4-0.5 0.8-0.2 0.5-0.2 1 0 0.5 0.3 1 4.1 8 8.6 15.9 4.4 7.9 9.2 15.6 4.7 7.7 9.7 15.3 5 7.5 10.3 14.8 0.2 0.3 0.5 0.6 0.3 0.2 0.7 0.3 0.3 0.1 0.7 0.1 0.4 0 0.7-0.1 25-7.6 49.2-17.4 24.3-9.7 47.6-21.5 23.3-11.8 45.6-25.5 22.2-13.7 43.2-29.3 0.2-0.2 0.3-0.3 0.2-0.2 0.3-0.5 0.2-0.2 0.2-0.4 0.1-0.3 0.1-0.5c15.5-160.2-25.9-299.3-109.6-422.7zm-381.1 338.3c-36.9 0-66.7-33.5-66.7-74.9 0-41.3 29.8-74.8 66.7-74.8 36.9 0 66.7 33.5 66.7 74.8 0 41.4-29.8 74.9-66.7 74.9zm246.5 0c-36.9 0-66.7-33.5-66.7-74.9 0-41.3 29.8-74.8 66.7-74.8 36.9 0 66.7 33.5 66.7 74.8 0 41.4-29.8 74.9-66.7 74.9z"/>
</svg>