<svg version="1.2" xmlns="http://www.w3.org/2000/svg" viewBox="0 0 1080 1080" width="1080" height="1080">
	<title>Itch.io</title>
	<path id="Background" fill-rule="evenodd" class="s0" d="m540 1080c-298.6 0-540-241.4-540-540 0-298.6 241.4-540 540-540 298.6 0 540 241.4 540 540 0 298.6-241.4 540-540 540zm-295.7-895.5c-34.9 20.7-103.7 99.7-104.3 120.4v34.3c0 43.5 40.6 81.7 77.5 81.7 44.3 0 81.2-36.7 81.2-80.4 0 43.6 35.7 80.4 80 80.4 44.3 0 78.7-36.7 78.7-80.4 0 43.6 37.9 80.4 82.2 80.4h0.8c44.3 0 82.2-36.7 82.2-80.4 0 43.6 34.5 80.4 78.7 80.4 44.3 0 80-36.7 80-80.4 0 43.6 36.9 80.4 81.2 80.4 36.9 0 77.5-38.2 77.5-81.7v-34.3c-0.6-20.7-69.4-99.7-104.3-120.5-108.4-3.8-183.6-4.4-295.6-4.4-112.1 0-264.9 1.8-295.8 4.5zm212.4 214.5c-35.4 61.7-125.2 62.2-160.4 0.4-21.2 37.2-69.4 51.5-90 44.4-6.2 64.6-22 381.1 28.5 432.5 128.5 30 485.3 29.1 610.1 0 50.9-51.8 34.3-372.8 28.5-432.5-20.7 7.2-68.8-7.3-89.9-44.4-35.4 61.9-125.1 61.2-160.5-0.4-11.4 20.1-37 46.5-83.1 46.5-8.4 0.3-16.7-0.6-24.8-2.6-8.1-2-15.9-5-23.2-9.1-7.3-4.1-14-9.1-20-15-5.9-5.9-11-12.5-15.2-19.8zm-67.3 87.5c26.5 0 50 0 79.2 32q17.7-1.8 35.4-2.7 17.8-0.9 35.5-0.9 17.8 0 35.5 0.9 17.8 0.9 35.4 2.7c29.3-31.8 52.8-31.8 79.3-31.8 84.2 0 104.9 125.3 134.9 233.4 27.8 100.4-8.9 102.9-54.6 103-67.8-2.6-105.4-52-105.4-101.5-63.1 10.4-163.9 14.2-250.2 0 0 49.5-37.6 98.9-105.4 101.5-45.7-0.1-82.3-2.6-54.6-103 30.1-108.3 50.8-233.4 135-233.6zm150.2 77.4q0 0 0 0 0 0 0 0zm-84.3 89.2l46.7-1.9v40.9c0 2.5 34.3 0.3 37.5 0.3 18.8 0.9 37.5 1.6 37.5-0.3v-40.8l46.7 1.9c-12.9-23.4-84.2-89.2-84.1-89.3-0.1 0.1-71.4 65.9-84.3 89.2z"/>
</svg>