<svg version="1.2" xmlns="http://www.w3.org/2000/svg" viewBox="0 0 1080 1080" width="1080" height="1080">
	<title>TikTok</title>
	<path id="Background" fill-rule="evenodd" class="s0" d="m540 1080c-298.6 0-540-241.4-540-540 0-298.6 241.4-540 540-540 298.6 0 540 241.4 540 540 0 298.6-241.4 540-540 540zm308-723.5c-8.1 0-16.3-0.6-24.3-1.8-8-1.2-16-3-23.8-5.3-7.8-2.3-15.4-5.3-22.7-8.7-7.4-3.5-14.5-7.4-21.3-11.9-9.6-6.2-18.5-13.3-26.6-21.3-8.2-8-15.5-16.8-21.8-26.2-6.4-9.5-11.7-19.6-16-30.1-4.4-10.6-7.6-21.5-9.7-32.7q-0.7-3.8-1.2-7.6-0.4-3.8-0.8-7.6-0.3-3.8-0.4-7.6-0.2-3.9-0.1-7.7h-121v480.4c0 44.3-28.5 83.7-70.6 97.5-42.2 13.8-88.4-1.1-114.7-36.8-26.2-35.8-26.5-84.4-0.7-120.5 25.8-36 71.9-51.4 114.2-38.1v-123.6c-92.3-12.8-182.8 33-227.2 115-44.3 82-33.1 182.8 28 253.1 61.2 70.3 159.6 95.3 246.8 62.6 87.3-32.7 145.1-116 145.2-209.2v-245.8c12.2 8.8 25 16.6 38.4 23.3 13.5 6.7 27.4 12.4 41.7 17 14.3 4.6 28.9 8 43.8 10.3 14.8 2.3 29.8 3.4 44.8 3.4z"/>
</svg>